<svg width="44" height="44" viewBox="0 0 44 44" fill="none" xmlns="http://www.w3.org/2000/svg">
<g clip-path="url(#clip0_1_284)">
<path fill-rule="evenodd" clip-rule="evenodd" d="M10.1071 9.78577C9.92963 9.78577 9.78572 9.92967 9.78572 10.1072V18.0358C9.78572 18.2133 9.92963 18.3572 10.1071 18.3572H18.0357C18.2132 18.3572 18.3571 18.2133 18.3571 18.0358V10.1072C18.3571 9.92967 18.2132 9.78577 18.0357 9.78577H10.1071ZM7.78572 10.1072C7.78572 8.82511 8.82506 7.78577 10.1071 7.78577H18.0357C19.3178 7.78577 20.3571 8.82511 20.3571 10.1072V18.0358C20.3571 19.3179 19.3178 20.3572 18.0357 20.3572H10.1071C8.82506 20.3572 7.78572 19.3179 7.78572 18.0358V10.1072Z" fill="#1DDB70"/>
<path fill-rule="evenodd" clip-rule="evenodd" d="M10.1071 25.6429C9.92963 25.6429 9.78572 25.7869 9.78572 25.9644V33.8929C9.78572 34.0705 9.92963 34.2144 10.1071 34.2144H18.0357C18.2132 34.2144 18.3571 34.0705 18.3571 33.8929V25.9644C18.3571 25.7869 18.2132 25.6429 18.0357 25.6429H10.1071ZM7.78572 25.9644C7.78572 24.6823 8.82506 23.6429 10.1071 23.6429H18.0357C19.3178 23.6429 20.3571 24.6823 20.3571 25.9644V33.8929C20.3571 35.175 19.3178 36.2144 18.0357 36.2144H10.1071C8.82506 36.2144 7.78572 35.175 7.78572 33.8929V25.9644Z" fill="#1DDB70"/>
<path fill-rule="evenodd" clip-rule="evenodd" d="M25.9643 9.78577C25.7868 9.78577 25.6429 9.92967 25.6429 10.1072V18.0358C25.6429 18.2133 25.7868 18.3572 25.9643 18.3572H33.8929C34.0704 18.3572 34.2143 18.2133 34.2143 18.0358V10.1072C34.2143 9.92967 34.0704 9.78577 33.8929 9.78577H25.9643ZM23.6429 10.1072C23.6429 8.82511 24.6822 7.78577 25.9643 7.78577H33.8929C35.1749 7.78577 36.2143 8.82511 36.2143 10.1072V18.0358C36.2143 19.3179 35.1749 20.3572 33.8929 20.3572H25.9643C24.6822 20.3572 23.6429 19.3179 23.6429 18.0358V10.1072Z" fill="#1DDB70"/>
<path fill-rule="evenodd" clip-rule="evenodd" d="M24.6429 23.6429C25.1951 23.6429 25.6429 24.0907 25.6429 24.6429V29.9287C25.6429 30.4809 25.1951 30.9287 24.6429 30.9287C24.0906 30.9287 23.6429 30.4809 23.6429 29.9287V24.6429C23.6429 24.0907 24.0906 23.6429 24.6429 23.6429Z" fill="#1DDB70"/>
<path fill-rule="evenodd" clip-rule="evenodd" d="M29.9286 23.6429C30.4809 23.6429 30.9286 24.0907 30.9286 24.6429V35.2144C30.9286 35.7667 30.4809 36.2144 29.9286 36.2144H24.6429C24.0906 36.2144 23.6429 35.7667 23.6429 35.2144C23.6429 34.6621 24.0906 34.2144 24.6429 34.2144H28.9286V24.6429C28.9286 24.0907 29.3763 23.6429 29.9286 23.6429Z" fill="#1DDB70"/>
<path fill-rule="evenodd" clip-rule="evenodd" d="M28.9286 27.2858C28.9286 26.7335 29.3763 26.2858 29.9286 26.2858H35.2143C35.7666 26.2858 36.2143 26.7335 36.2143 27.2858C36.2143 27.8381 35.7666 28.2858 35.2143 28.2858H29.9286C29.3763 28.2858 28.9286 27.8381 28.9286 27.2858Z" fill="#1DDB70"/>
<path fill-rule="evenodd" clip-rule="evenodd" d="M35.2143 31.5714C35.7666 31.5714 36.2143 32.0191 36.2143 32.5714V35.2143C36.2143 35.7666 35.7666 36.2143 35.2143 36.2143C34.662 36.2143 34.2143 35.7666 34.2143 35.2143V32.5714C34.2143 32.0191 34.662 31.5714 35.2143 31.5714Z" fill="#1DDB70"/>
</g>
<defs>
<clipPath id="clip0_1_284">
<rect width="42.2857" height="42.2857" fill="white" transform="translate(0.857147 0.857178)"/>
</clipPath>
</defs>
</svg>
